<svg width="25" height="25" viewBox="0 0 25 25" fill="none" xmlns="http://www.w3.org/2000/svg">
<path fill-rule="evenodd" clip-rule="evenodd" d="M12.9718 0.947529C6.34629 0.947529 0.974916 6.32242 0.974916 12.9528C0.974916 19.5824 6.34629 24.9569 12.9718 24.9569C19.5977 24.9569 24.969 19.5824 24.969 12.9528C24.969 6.32242 19.5977 0.947529 12.9718 0.947529ZM12.9718 3.03534C15.2469 3.03534 17.3389 3.81421 19.0135 5.10892C17.8095 6.66274 16.1468 7.89202 14.0285 8.78939C13.0126 6.92797 11.852 5.1127 10.5412 3.35034C11.3203 3.1519 12.132 3.03534 12.9718 3.03534ZM8.50071 4.11397C9.83226 5.85709 11.0108 7.65362 12.0367 9.49725C9.60712 10.213 6.70675 10.5807 3.35414 10.6038C4.04649 7.76781 5.95565 5.40896 8.50071 4.11397ZM3.06158 12.952C3.06158 12.8661 3.07267 12.7822 3.07459 12.6967C6.9219 12.6907 10.2409 12.2482 13.0218 11.3732C13.2546 11.8479 13.478 12.3259 13.6912 12.8059C10.3135 13.8628 7.5288 16.0286 5.35694 19.2884C3.92524 17.5696 3.06158 15.36 3.06158 12.952ZM12.9718 22.8691C10.6792 22.8691 8.57103 22.0794 6.88969 20.7655C8.85834 17.6753 11.3718 15.6646 14.4857 14.7362C15.4126 17.1574 16.0948 19.6478 16.5284 22.1989C15.4222 22.6258 14.2263 22.8691 12.9718 22.8691ZM18.4726 21.1952C18.0346 18.8418 17.3927 16.5404 16.5535 14.2957C18.4283 14.0308 20.4927 14.0996 22.7506 14.492C22.3138 17.2795 20.7238 19.6866 18.4726 21.1952ZM15.7536 12.32C15.5102 11.7566 15.257 11.1951 14.9872 10.6395C17.2955 9.63892 19.1511 8.28018 20.5341 6.55608C21.8824 8.15115 22.7295 10.1758 22.8547 12.3931C20.28 11.9715 17.9124 11.9482 15.7536 12.32Z" fill="white"/>
</svg>
