<?xml version="1.0" standalone="no"?>
<!DOCTYPE svg PUBLIC "-//W3C//DTD SVG 20010904//EN"
 "http://www.w3.org/TR/2001/REC-SVG-20010904/DTD/svg10.dtd">
<svg version="1.0" xmlns="http://www.w3.org/2000/svg"
 width="32.000000pt" height="22.000000pt" viewBox="0 0 32.000000 22.000000"
 preserveAspectRatio="xMidYMid meet">

<g transform="translate(0.000000,22.000000) scale(0.100000,-0.100000)"
fill="#000000" stroke="none">
<path d="M0 110 l0 -110 160 0 160 0 0 110 0 110 -160 0 -160 0 0 -110z m151
66 c8 -17 8 -29 0 -44 -7 -14 -8 -23 -1 -27 5 -3 10 -19 10 -34 0 -35 -38 -54
-96 -49 l-39 3 -3 88 -3 87 61 0 c54 0 62 -3 71 -24z m129 4 c0 -5 -20 -10
-45 -10 -25 0 -45 5 -45 10 0 6 20 10 45 10 25 0 45 -4 45 -10z m4 -46 c21
-21 15 -82 -9 -101 -63 -45 -140 41 -88 99 20 22 76 24 97 2z"/>
<path d="M65 160 c-4 -7 -3 -16 3 -22 14 -14 47 -6 47 12 0 18 -40 26 -50 10z"/>
<path d="M65 91 c-10 -17 4 -31 31 -31 19 0 25 5 22 18 -4 19 -43 29 -53 13z"/>
<path d="M220 110 c0 -5 7 -10 15 -10 8 0 15 5 15 10 0 6 -7 10 -15 10 -8 0
-15 -4 -15 -10z"/>
<path d="M216 71 c-11 -16 27 -22 43 -6 14 13 13 15 -11 15 -15 0 -29 -4 -32
-9z"/>
</g>
</svg>
